# xmcd
#
# Track frame offsets:
#	150
#	24733
#	48570
#	73472
#	94353
#	121113
#	154533
#	179145
#	200860
#	222168
#
# Disc length: 3249 seconds
#
# Revision: 1
# Processed by: cddbd v1.5.2PL0 Copyright (c) Steve Scherf et al.
# Submitted via: EZCDAudioConverter 8.0.2.1
#
DISCID=9d0caf0a
DTITLE=Giao Linh, Thiên Trang, Phượng Mai, Sơn Tuyền - Giọt Lệ Đài Trang
DYEAR=1994
DGENRE=blues
TTITLE0=Phượng Mai - Nỗi buồn hoa phượng
TTITLE1=Sơn Tuyền - Giọt Lệ Đài Trang
TTITLE2=Giao Linh - Rùng xanh thương nhớ
TTITLE3=Thiên Trang - Chuyện tình trong tim
TTITLE4=Phuong Mai - Phượn yêu
TTITLE5=Sơn Tuyền - Dấu chân kỷ niệm
TTITLE6=Thiên Trang - Ngọn đèn đêm
TTITLE7=Giao Linh - Cánh nhạn hồi âm
TTITLE8=Phượng Mai - Hoa cài mái tóc
TTITLE9=Thiên Trang - Phút cuối
EXTD=
EXTT0=
EXTT1=
EXTT2=
EXTT3=
EXTT4=
EXTT5=
EXTT6=
EXTT7=
EXTT8=
EXTT9=
PLAYORDER=
